<svg width="326" height="316" viewBox="0 0 326 316" fill="none" xmlns="http://www.w3.org/2000/svg">
<path d="M211.931 183.804C217.668 193.987 232.332 193.987 238.069 183.804L299.869 74.1129C305.503 64.1137 298.278 51.75 286.801 51.75H163.199C151.722 51.75 144.497 64.1137 150.131 74.1129L211.931 183.804Z" fill="#F0ADAD"/>
<circle cx="225.5" cy="239.5" r="23.5" fill="#EEDF92"/>
<path d="M114.069 132.196C108.332 122.013 93.6685 122.013 87.9314 132.196L26.1308 241.887C20.4972 251.886 27.7224 264.25 39.1994 264.25H162.801C174.278 264.25 181.503 251.886 175.869 241.887L114.069 132.196Z" fill="#ADD0F0"/>
<circle cx="100.5" cy="76.5" r="23.5" transform="rotate(-180 100.5 76.5)" fill="#A9EAB0"/>
</svg>
