<svg width="1225" height="316" viewBox="0 0 1225 316" fill="none" xmlns="http://www.w3.org/2000/svg">
<path d="M211.931 183.804C217.668 193.987 232.332 193.987 238.069 183.804L299.869 74.1129C305.503 64.1137 298.278 51.75 286.801 51.75H163.199C151.722 51.75 144.497 64.1137 150.131 74.1129L211.931 183.804Z" fill="#F0ADAD"/>
<circle cx="225.5" cy="239.5" r="23.5" fill="#EEDF92"/>
<path d="M114.069 132.196C108.332 122.013 93.6685 122.013 87.9314 132.196L26.1308 241.887C20.4972 251.886 27.7224 264.25 39.1994 264.25H162.801C174.278 264.25 181.503 251.886 175.869 241.887L114.069 132.196Z" fill="#ADD0F0"/>
<circle cx="100.5" cy="76.5" r="23.5" transform="rotate(-180 100.5 76.5)" fill="#A9EAB0"/>
<path d="M470.009 93.5455H513.545L550.477 183.602H552.182L589.114 93.5455H632.651V239H598.418V149.653H597.21L562.267 238.077H540.392L505.449 149.156H504.241V239H470.009V93.5455ZM754.685 137.153C754.212 131.945 752.105 127.897 748.364 125.009C744.671 122.073 739.392 120.605 732.526 120.605C727.981 120.605 724.193 121.197 721.163 122.381C718.132 123.564 715.86 125.198 714.344 127.281C712.829 129.317 712.048 131.661 712.001 134.312C711.906 136.491 712.332 138.408 713.279 140.065C714.273 141.723 715.694 143.19 717.54 144.469C719.434 145.7 721.707 146.789 724.359 147.736C727.01 148.683 729.993 149.511 733.308 150.222L745.808 153.062C753.005 154.625 759.349 156.708 764.842 159.312C770.381 161.917 775.022 165.018 778.762 168.616C782.55 172.215 785.415 176.358 787.356 181.045C789.297 185.733 790.291 190.989 790.339 196.812C790.291 205.998 787.971 213.882 783.379 220.463C778.786 227.045 772.181 232.087 763.563 235.591C754.993 239.095 744.647 240.847 732.526 240.847C720.358 240.847 709.752 239.024 700.708 235.378C691.665 231.732 684.633 226.192 679.614 218.759C674.595 211.325 672.015 201.926 671.873 190.562H705.538C705.822 195.25 707.076 199.156 709.302 202.281C711.527 205.406 714.581 207.774 718.464 209.384C722.394 210.993 726.939 211.798 732.1 211.798C736.835 211.798 740.86 211.159 744.174 209.881C747.536 208.602 750.116 206.827 751.915 204.554C753.715 202.281 754.638 199.677 754.685 196.741C754.638 193.995 753.786 191.652 752.129 189.71C750.471 187.722 747.915 186.017 744.458 184.597C741.049 183.129 736.693 181.779 731.39 180.548L716.191 176.997C703.596 174.109 693.677 169.445 686.433 163.006C679.188 156.519 675.59 147.759 675.637 136.727C675.59 127.731 678.004 119.848 682.881 113.077C687.758 106.306 694.505 101.027 703.123 97.2386C711.74 93.4508 721.565 91.5568 732.597 91.5568C743.866 91.5568 753.644 93.4744 761.93 97.3097C770.263 101.098 776.726 106.424 781.319 113.29C785.912 120.155 788.255 128.11 788.35 137.153H754.685ZM953.371 93.5455V239H923.542L865.658 155.051H864.735V239H829.579V93.5455H859.835L917.079 177.352H918.286V93.5455H953.371ZM1032.12 93.5455V239H996.962V93.5455H1032.12ZM1207.7 146.244H1172.19C1171.72 142.598 1170.75 139.308 1169.28 136.372C1167.81 133.437 1165.87 130.927 1163.46 128.844C1161.04 126.76 1158.18 125.174 1154.86 124.085C1151.6 122.949 1147.97 122.381 1144 122.381C1136.94 122.381 1130.86 124.109 1125.74 127.565C1120.68 131.022 1116.77 136.017 1114.02 142.551C1111.33 149.085 1109.98 156.992 1109.98 166.273C1109.98 175.932 1111.35 184.028 1114.1 190.562C1116.89 197.049 1120.8 201.95 1125.81 205.264C1130.88 208.531 1136.87 210.165 1143.78 210.165C1147.67 210.165 1151.19 209.668 1154.37 208.673C1157.59 207.679 1160.4 206.235 1162.82 204.341C1165.28 202.4 1167.29 200.056 1168.85 197.31C1170.46 194.516 1171.58 191.367 1172.19 187.864L1207.7 188.077C1207.09 194.516 1205.22 200.861 1202.09 207.111C1199.02 213.361 1194.78 219.066 1189.38 224.227C1183.98 229.341 1177.4 233.413 1169.64 236.443C1161.92 239.473 1153.06 240.989 1143.07 240.989C1129.91 240.989 1118.12 238.1 1107.7 232.324C1097.33 226.5 1089.14 218.025 1083.13 206.898C1077.12 195.771 1074.11 182.229 1074.11 166.273C1074.11 150.269 1077.16 136.704 1083.27 125.577C1089.38 114.45 1097.64 105.998 1108.06 100.222C1118.48 94.4451 1130.15 91.5568 1143.07 91.5568C1151.88 91.5568 1160.02 92.7879 1167.5 95.25C1174.99 97.6648 1181.57 101.216 1187.25 105.903C1192.93 110.544 1197.55 116.249 1201.1 123.02C1204.65 129.791 1206.85 137.532 1207.7 146.244Z" fill="#3A3A3A"/>
</svg>
